# xmcd
# Copyright (c) 1998 CDDB Inc.
#
# Track frame offsets:
#	150
#	11046
#	23335
#	36208
#	48876
#	63526
#	75882
#	86826
#	105894
#	116348
#	128800
#	139495
#	155701
#	168807
#	180656
#	195729
#	213412
#	233403
#	251925
#	267696
#	287278
#	305733
#
# Disc length: 4365 seconds
#
# Revision: 1
# Processed by: cddbd v1.4PL0 Copyright (c) Steve Scherf et al.
# Submitted via: audiograbber 1.70
#
DISCID=27110b16
DTITLE=Aretha Franklin - Greatest Hits 1980-1994
DYEAR=1900
DGENRE=
TTITLE0=Respect
TTITLE1=Baby I Love You
TTITLE2=I Never Loved A Man (The Way I Love You)
TTITLE3=Chain of Fools
TTITLE4=Do Right Woman - Do Right Man
TTITLE5=(You Make Me Feel Like) A Natural Woman
TTITLE6=(Sweet Sweey Baby) Since You've Been Gone
TTITLE7=Ain't No Way
TTITLE8=Think
TTITLE9=See Saw
TTITLE10=The House That Jack Built
TTITLE11=I Say A Little Prayer
TTITLE12=The Weight
TTITLE13=Eleanor Rigby
TTITLE14=Share Your Love With Me
TTITLE15=Call Me
TTITLE16=A Rose Is Still A Rose
TTITLE17=Every Lil' Bit Hurts
TTITLE18=Here We Go Again
TTITLE19=How Many Times
TTITLE20=I'll Dip
TTITLE21=In Case You Forgot
EXTD=
EXTT0=
EXTT1=
EXTT2=
EXTT3=
EXTT4=
EXTT5=
EXTT6=
EXTT7=
EXTT8=
EXTT9=
EXTT10=
EXTT11=
EXTT12=
EXTT13=
EXTT14=
EXTT15=
EXTT16=
EXTT17=
EXTT18=
EXTT19=
EXTT20=
EXTT21=
PLAYORDER=
